<?xml version="1.0" encoding="utf-8"?>
<!-- Generator: Adobe Illustrator 22.0.0, SVG Export Plug-In . SVG Version: 6.00 Build 0)  -->
<svg version="1.1" id="bfc59778-adb9-4ded-81d5-12977ec092f3"
	 xmlns="http://www.w3.org/2000/svg" xmlns:xlink="http://www.w3.org/1999/xlink" x="0px" y="0px" viewBox="0 0 996.5 828.2"
	 style="enable-background:new 0 0 996.5 828.2;" xml:space="preserve">
<style type="text/css">
	.st0{opacity:0.1;fill:#6C63FF;enable-background:new    ;}
	.st1{fill:#D48A9B;}
	.st2{fill:#8C8FD3;}
	.st3{fill:#012346;}
	.st4{opacity:0.2;fill:#DDA2A6;enable-background:new    ;}
	.st5{opacity:0.1;enable-background:new    ;}
	.st6{opacity:0.1;}
	.st7{fill:#00396D;}
	.st8{fill:#E1DEE5;}
	.st9{fill:#646DA0;}
	.st10{fill:#D9D6DF;}
	.st11{fill:#7980B7;}
	.st12{opacity:0.1;fill:#FFFFFF;enable-background:new    ;}
	.st13{fill:url(#SVGID_1_);}
	.st14{fill:#EFB7B9;}
	.st15{fill:#CECECE;}
	.st16{fill:#333333;}
	.st17{fill:#303030;}
	.st18{fill:#F3F5F9;}
	.st19{fill:#4C4F7A;}
	.st20{fill:#444053;}
	.st21{fill:#D1D9EC;}
	.st22{fill:#DFE6F5;}
	.st23{fill:#FFFFFF;}
	.st24{fill:none;}
	.st25{fill:#67647E;}
	.st26{fill:#353535;}
	.st27{fill:#746D83;}
	.st28{fill:#4C4C56;}
</style>
<path class="st0" d="M994.6,272.4h-91.9v111.5h85.2c0.2,1.1,0.4,2.3,0.7,3.4h-85.9v89.9l0.4-0.1c2.4-0.9,4.8-1.8,7.2-2.7l1.5-0.6
	c2.5-1,4.9-2.1,7.2-3.2c0.8-0.4,1.7-0.8,2.5-1.2c13.2-6.5,25.4-14.9,36.2-25c0.3-0.3,0.6-0.5,0.9-0.8c1.5-1.4,2.9-2.9,4.3-4.3
	l1.5-1.6c1.7-1.8,3.2-3.6,4.8-5.5l0.7-0.8c6.2-7.6,11.5-16,15.6-25c0.1-0.3,0.2-0.5,0.4-0.8c1.3-2.8,2.4-5.7,3.4-8.6
	c0.4-1.2,0.8-2.5,1.2-3.7c0.1-0.4,0.2-0.7,0.3-1.1c5.1-17.9,5.7-36.4,5.7-54.9c0-2.1,0-4.3,0-6.5c0-7.5-0.1-15-0.3-22.5
	c0-1.9-0.1-3.9-0.1-5.8c-0.1-5-0.3-9.9-0.5-14.8c-0.1-1.4-0.1-2.8-0.2-4.1c0-0.8-0.1-1.6-0.1-2.4C995,278.1,994.8,275.3,994.6,272.4
	z"/>
<path class="st0" d="M902.6,148.4h50.4c-8.3-11.5-17.2-22.5-26.8-32.8c-7.5-8.2-15.4-16.2-23.6-23.8L902.6,148.4z"/>
<path class="st0" d="M902.6,151.8V269h91.6c0-0.3-0.1-0.7-0.1-1c-0.1-0.9-0.2-1.8-0.3-2.8s-0.2-2.2-0.3-3.3s-0.2-2.4-0.4-3.5
	s-0.3-2.4-0.4-3.5s-0.3-2.3-0.4-3.5s-0.3-2.3-0.5-3.5c-0.1-1-0.3-1.9-0.4-2.9c-0.2-1.4-0.4-2.7-0.7-4.1c0-0.2-0.1-0.4-0.1-0.6
	c-1.7-9.9-3.9-19.8-6.7-29.4c-3-10.2-6.8-20.2-11.4-29.9c-4.9-10.2-10.7-20-17.1-29.3L902.6,151.8z"/>
<path class="st0" d="M684.3,272.4v111.5h196.4V272.4H684.3z M684.3,387.3v75.5c22.9-7.3,49-4.4,72.7,1.6c18.3,4.7,36.2,11,54.5,15.6
	c8.2,2.1,16.5,3.7,24.9,4.7l2.1,0.2c1,0.1,2,0.2,3,0.3l3,0.2h0.3h1.3c0.2,0,0.3,0,0.5,0l1.6,0.1h0c0.8,0,1.5,0,2.3,0.1h1
	c0.8,0,1.5,0,2.3,0h1.7h1.4c0.6,0,1.2,0,1.8-0.1c0.9,0,1.9-0.1,2.8-0.2l0,0l1.8-0.1l2.2-0.2c1.5-0.1,3-0.3,4.5-0.5
	c0.6-0.1,1.2-0.1,1.8-0.2l0.9-0.1c1.5-0.2,3-0.4,4.5-0.7c1.1-0.2,2.2-0.4,3.3-0.6v-95.6H684.3z M830.4,148.3v3.4H684.3V269h196.4
	V151.8h-9.8v-3.4h9.8V72.6c-38.2-30.8-82.8-54.9-132.6-66C727.2,2,705.8-0.2,684.3,0v148.4L830.4,148.3z M381.4,147.7l0.7,0.7h280.3
	V1c-49.9,4.2-98.6,20.9-137.8,48.7c-18.8,13.3-35.8,29.1-56.9,39.4c-11.1,5.5-23.2,8.6-35.6,9.2L381.4,147.7z M379.4,87.2v33.4
	l27.1-26.4C396.5,90.7,388.5,88.3,379.4,87.2L379.4,87.2z M378.5,506.8h0.9v73.1c10.2-0.8,20.4-1.8,30.5-3.1
	c45.3-5.8,89.8-17.4,132.2-34.3l0,0c4.6-1.8,9.1-3.7,13.6-5.7c3-1.3,6-2.6,8.9-4c4.4-2,8.8-4.1,13.2-6.3c19.4-9.5,38-20.4,55.9-32.5
	c1.1-0.8,2.2-1.5,3.3-2.3c2.2-1.5,4.4-3.1,6.6-4.6c1.1-0.8,2.2-1.6,3.3-2.4l2.2-1.7c2.2-1.7,4.5-3.3,6.7-5l0,0
	c2.1-1.5,4.2-3,6.3-4.4v-86.4H437.1c0.2-0.5,0.3-1,0.5-1.5c-0.2,0.5-0.3,1-0.5,1.5h-57.7v119.5L378.5,506.8z M379.4,151.8V269h282.9
	V151.8L379.4,151.8z M379.4,272.4v111.5h282.9V272.4L379.4,272.4z M322.9,90.7l34.6,33.7V87.1C345.9,87.8,334.3,89,322.9,90.7z
	 M82.2,272.4v111.5h275.2V272.4H82.2z M148.8,547.7c41.7,15.9,85.3,26.2,129.7,30.8h0.2c8.4,0.9,16.8,1.6,25.3,2.1h0.3l0,0
	c17.7,1,35.5,1.2,53.2,0.6V387.3H82.2l1,128.3 M6,383.9h54.3V272.4H38.8c-2.2,3.9-4.4,7.9-6.4,11.9c-1.1,2.1-2.2,4.3-3.2,6.5
	C15,320.1,6.1,352.3,6,383.9z M6,387.3c0.4,22.6,5.5,44.9,16.7,65.4c9.3,17,22.2,32,37.5,45V387.3H6z M40.8,269h19.5v-29
	C53.2,249.3,46.7,259,40.8,269L40.8,269z M162.7,148.4H351l0.7-0.7l-1-1l0,0l-52.9-51.6c-15.7,3.3-31.2,7.4-46.5,12.4
	c-1.4,0.5-2.9,1-4.3,1.4C217.5,119,189.2,132.2,162.7,148.4z M82.2,213.8V269h241.4l0,0h0h33.8V155l-3.9-3.1H157.2
	C129.6,169.2,104.4,190,82.2,213.8z"/>
<path class="st0" d="M902.6,210.9V269h91.6c0-0.3-0.1-0.7-0.1-1c-0.1-0.9-0.2-1.8-0.3-2.8s-0.2-2.2-0.3-3.3s-0.2-2.4-0.4-3.5
	s-0.3-2.4-0.4-3.5s-0.3-2.3-0.4-3.5s-0.3-2.3-0.5-3.5c-0.1-1-0.3-1.9-0.4-2.9c-0.2-1.4-0.4-2.7-0.7-4.1c0-0.2-0.1-0.4-0.1-0.6
	c-1.7-9.9-3.9-19.8-6.7-29.4L902.6,210.9z"/>
<path class="st0" d="M994.6,272.4h-91.9v111.5h85.2c0.2,1.1,0.4,2.3,0.7,3.4h-85.9v89.9l0.4-0.1c2.4-0.9,4.8-1.8,7.2-2.7l1.5-0.6
	c2.5-1,4.9-2.1,7.2-3.2c0.8-0.4,1.7-0.8,2.5-1.2c13.2-6.5,25.4-14.9,36.2-25c0.3-0.3,0.6-0.5,0.9-0.8c1.5-1.4,2.9-2.9,4.3-4.3
	l1.5-1.6c1.7-1.8,3.2-3.6,4.8-5.5l0.7-0.8c6.2-7.6,11.5-16,15.6-25c0.1-0.3,0.2-0.5,0.4-0.8c1.3-2.8,2.4-5.7,3.4-8.6
	c0.4-1.2,0.8-2.5,1.2-3.7c0.1-0.4,0.2-0.7,0.3-1.1c5.1-17.9,5.7-36.4,5.7-54.9c0-2.1,0-4.3,0-6.5c0-7.5-0.1-15-0.3-22.5
	c0-1.9-0.1-3.9-0.1-5.8c-0.1-5-0.3-9.9-0.5-14.8c-0.1-1.4-0.1-2.8-0.2-4.1c0-0.8-0.1-1.6-0.1-2.4C995,278.1,994.8,275.3,994.6,272.4
	z"/>
<polygon class="st0" points="811.6,168.6 811.6,269 880.7,269 880.7,168.6 870.8,168.6 870.8,134.6 830.4,134.6 830.4,168.6 "/>
<rect x="811.6" y="272.5" class="st0" width="69.1" height="111.4"/>
<path class="st0" d="M880.7,387.3h-69.1V480c8.2,2.1,16.5,3.7,24.9,4.7l2.1,0.2c1,0.1,2,0.2,3,0.3l3,0.2c0.1,0,0.2,0,0.3,0
	c0.4,0,0.9,0,1.3,0.1h0.5c0.5,0,1.1,0,1.6,0.1l0,0c0.8,0,1.5,0,2.3,0.1h1c0.8,0,1.5,0,2.3,0h1.7h1.4l1.8-0.1c0.9,0,1.9-0.1,2.8-0.2
	l0,0l1.7-0.1l2.2-0.2c1.5-0.1,3-0.3,4.5-0.5l1.8-0.2l0.9-0.1c1.5-0.2,3-0.4,4.5-0.7c1.1-0.2,2.2-0.4,3.3-0.6L880.7,387.3z"/>
<rect x="379.4" y="156.7" class="st0" width="57" height="112.3"/>
<polygon class="st0" points="379.4,272.5 379.4,383.9 662.3,383.9 662.3,335.8 511.6,335.8 511.6,364.2 436.4,364.2 436.4,272.5 "/>
<path class="st0" d="M378.5,506.8h0.9V580c10.2-0.8,20.4-1.8,30.5-3.1c45.4-5.9,89.8-17.4,132.3-34.3c12.2-4.9,24.1-10.2,35.7-15.9
	c19.4-9.5,38-20.4,55.9-32.5c4.5-3,8.8-6.1,13.2-9.3c3-2.2,6-4.5,9-6.7c2.1-1.5,4.2-3,6.3-4.4v-86.4H437.2c0.2-0.5,0.3-1,0.5-1.5
	c-0.2,0.5-0.3,1-0.5,1.5h-57.7v119.5L378.5,506.8z"/>
<path class="st0" d="M230.7,148.4h37.1v-10.3h-16.6v-30.6c-1.4,0.5-2.9,1-4.3,1.4v29.1h-16.2V148.4z"/>
<path class="st0" d="M141.2,269h182.4h-0.1h0.1h33.8V156.7h-9.6v83h-43.8v-49.1h-36.2v-38.8h-37.1v38.8h-36.2v49.1h-53.3V269z"/>
<path class="st0" d="M141.2,272.4v111.5h216.2V272.4H141.2z M148.8,547.7c41.7,15.9,85.3,26.2,129.7,30.8h0.2
	c8.4,0.9,16.8,1.6,25.3,2.1h0.3l0,0c17.7,1,35.5,1.2,53.2,0.6V387.3H141.2v39.5h-59l0.3,88.2"/>
<path class="st0" d="M56.5,387.3H6c0.4,22.6,5.6,44.9,16.7,65.4c9.3,17.1,22.2,32,37.5,45v-70.9h-3.8L56.5,387.3z"/>
<path class="st0" d="M6,383.9h50.5v-93.1H29.2C15,320.1,6.1,352.3,6,383.9z"/>
<rect x="379.4" y="187.9" class="st0" width="30.5" height="35.2"/>
<rect x="379.4" y="260.9" class="st0" width="30.5" height="8.1"/>
<rect x="379.4" y="272.5" class="st0" width="30.5" height="23.6"/>
<rect x="379.4" y="333.9" class="st0" width="30.5" height="35.2"/>
<rect x="379.4" y="406.8" class="st0" width="30.5" height="35.2"/>
<path class="st0" d="M379.4,506.8h-0.9H379.4v8.2h30.5v-35.2h-30.5V506.8z"/>
<path class="st0" d="M379.4,552.7v27.2c10.2-0.8,20.4-1.8,30.5-3.1v-24L379.4,552.7z"/>
<rect x="531.5" y="381.3" class="st0" width="130.9" height="2.6"/>
<rect x="531.5" y="387.3" class="st0" width="130.9" height="9.9"/>
<rect x="531.5" y="429.7" class="st0" width="130.9" height="15.9"/>
<path class="st0" d="M531.5,478.1v15.9h102.4c4.4-3,8.8-6.1,13.2-9.3c3-2.2,6-4.5,9-6.6L531.5,478.1z"/>
<path class="st0" d="M531.5,526.6v15.9h10.8c12.2-4.9,24.1-10.2,35.7-15.9H531.5z"/>
<rect x="278.5" y="283.3" class="st0" width="25.8" height="22.9"/>
<rect x="836.4" y="176.5" class="st0" width="25.8" height="22.9"/>
<rect x="836.4" y="229.7" class="st0" width="25.8" height="22.9"/>
<rect x="836.4" y="282.9" class="st0" width="25.8" height="22.9"/>
<rect x="836.4" y="336.1" class="st0" width="25.8" height="22.9"/>
<rect x="836.4" y="389.4" class="st0" width="25.8" height="22.9"/>
<rect x="836.4" y="442.6" class="st0" width="25.8" height="22.9"/>
<rect x="180.1" y="283.3" class="st0" width="25.8" height="22.9"/>
<rect x="278.5" y="339.8" class="st0" width="25.8" height="22.9"/>
<rect x="180.1" y="339.8" class="st0" width="25.8" height="22.9"/>
<rect x="278.5" y="396.3" class="st0" width="25.8" height="22.9"/>
<rect x="180.1" y="396.3" class="st0" width="25.8" height="22.9"/>
<rect x="278.5" y="452.8" class="st0" width="25.8" height="22.9"/>
<rect x="180.1" y="452.8" class="st0" width="25.8" height="22.9"/>
<rect x="278.5" y="509.3" class="st0" width="25.8" height="22.9"/>
<rect x="180.1" y="509.3" class="st0" width="25.8" height="22.9"/>
<polygon class="st0" points="304.3,580.6 304.3,565.8 278.5,565.8 278.5,578.5 "/>
<path class="st0" d="M902.6,240.4v13.1h88.2v-13.1H902.6z M982,241.2h7.2v11.5H982L982,241.2z M973.3,241.2h7.2v11.5h-7.3
	L973.3,241.2z M964.5,241.2h7.2v11.5h-7.2V241.2z M955.7,241.2h7.2v11.5h-7.2V241.2z M946.9,241.2h7.3v11.5H947L946.9,241.2z
	 M938.2,241.2h7.2v11.5h-7.2V241.2z M929.4,241.2h7.2v11.5h-7.2V241.2z M920.6,241.2h7.2v11.5h-7.2V241.2z M911.8,241.2h7.2v11.5
	h-7.2V241.2z M903.1,241.2h7.2v11.5h-7.2V241.2z"/>
<path class="st0" d="M902.6,278.5v13.1h88.2v-13.1H902.6z M982,279.3h7.2v11.5H982L982,279.3z M973.3,279.3h7.2v11.5h-7.3
	L973.3,279.3z M964.5,279.3h7.2v11.5h-7.2V279.3z M955.7,279.3h7.2v11.5h-7.2V279.3z M946.9,279.3h7.3v11.5H947L946.9,279.3z
	 M938.2,279.3h7.2v11.5h-7.2V279.3z M929.4,279.3h7.2v11.5h-7.2V279.3z M920.6,279.3h7.2v11.5h-7.2V279.3z M911.8,279.3h7.2v11.5
	h-7.2V279.3z M903.1,279.3h7.2v11.5h-7.2V279.3z"/>
<path class="st0" d="M902.6,316.7v13.1h88.2v-13.1H902.6z M982,317.5h7.2v11.5H982L982,317.5z M973.3,317.5h7.2v11.5h-7.3
	L973.3,317.5z M964.5,317.5h7.2v11.5h-7.2V317.5z M955.7,317.5h7.2v11.5h-7.2V317.5z M946.9,317.5h7.3v11.5H947L946.9,317.5z
	 M938.2,317.5h7.2v11.5h-7.2V317.5z M929.4,317.5h7.2v11.5h-7.2V317.5z M920.6,317.5h7.2v11.5h-7.2V317.5z M911.8,317.5h7.2v11.5
	h-7.2V317.5z M903.1,317.5h7.2v11.5h-7.2V317.5z"/>
<path class="st0" d="M902.6,354.8v13.1h88.2v-13.1H902.6z M982,355.6h7.2v11.5H982L982,355.6z M973.3,355.6h7.2v11.5h-7.3
	L973.3,355.6z M964.5,355.6h7.2v11.5h-7.2V355.6z M955.7,355.6h7.2v11.5h-7.2V355.6z M946.9,355.6h7.3v11.5H947L946.9,355.6z
	 M938.2,355.6h7.2v11.5h-7.2V355.6z M929.4,355.6h7.2v11.5h-7.2V355.6z M920.6,355.6h7.2v11.5h-7.2V355.6z M911.8,355.6h7.2v11.5
	h-7.2V355.6z M903.1,355.6h7.2v11.5h-7.2V355.6z"/>
<path class="st0" d="M902.6,393v13.1h82.9c0.1-0.3,0.2-0.5,0.3-0.8H982v-11.5h7.2v2.9c0.4-1.2,0.8-2.4,1.2-3.7L902.6,393z
	 M973.3,393.8h7.2v11.5h-7.3L973.3,393.8z M964.5,393.8h7.2v11.5h-7.2V393.8z M955.7,393.8h7.2v11.5h-7.2V393.8z M946.9,393.8h7.3
	v11.5H947L946.9,393.8z M938.2,393.8h7.2v11.5h-7.2V393.8z M929.4,393.8h7.2v11.5h-7.2V393.8z M920.6,393.8h7.2v11.5h-7.2V393.8z
	 M911.8,393.8h7.2v11.5h-7.2V393.8z M903.1,393.8h7.2v11.5h-7.2V393.8z"/>
<path class="st0" d="M902.6,431.1v13.1h55.1c0.3-0.3,0.6-0.6,0.9-0.8h-2.9v-11.4h7.2v7.1l1.6-1.6v-5.5h4.8c0.2-0.3,0.4-0.6,0.7-0.8
	L902.6,431.1z M946.9,431.9h7.3v11.5H947L946.9,431.9z M938.2,431.9h7.2v11.5h-7.2V431.9z M929.4,431.9h7.2v11.5h-7.2V431.9z
	 M920.6,431.9h7.2v11.5h-7.2V431.9z M911.8,431.9h7.2v11.5h-7.2V431.9z M903.1,431.9h7.2v11.5h-7.2V431.9z"/>
<path class="st0" d="M902.6,469.3v7.9c0.1,0,0.3-0.1,0.4-0.2v-7h7.2v4.3l1.5-0.6v-3.6h7.2v0.4c0.8-0.4,1.7-0.8,2.5-1.2L902.6,469.3z
	"/>
<path class="st0" d="M323.6,269L323.6,269L323.6,269L323.6,269z M378.5,506.8h0.9l0,0H378.5z M437.1,387.3L437.1,387.3
	c0.2-0.5,0.3-1,0.5-1.5C437.4,386.3,437.3,386.8,437.1,387.3z M323.6,269L323.6,269L323.6,269L323.6,269z M830.4,148.4v3.4h40.5
	v-3.4H830.4z M378.5,506.8h0.9l0,0H378.5z M437.1,387.3L437.1,387.3c0.2-0.5,0.3-1,0.5-1.5C437.4,386.3,437.3,386.8,437.1,387.3z
	 M323.6,269L323.6,269L323.6,269L323.6,269z M378.5,506.8h0.9l0,0H378.5z M437.1,387.3L437.1,387.3c0.2-0.5,0.3-1,0.5-1.5
	C437.4,386.3,437.3,386.8,437.1,387.3z"/>
<polygon class="st1" points="668.3,535.3 651,534.3 649.9,484.7 649.6,472.9 667.8,469.5 668,484.7 "/>
<polygon class="st2" points="654.9,526.6 566.1,581.8 564.2,598.6 573.8,599.1 573.8,587.1 631.8,554.5 561.8,641.3 561.8,654.8 
	573.3,654.8 572.3,639.9 653.4,547.7 663.5,548.7 749,645.7 750.9,662 762.4,662.5 760.5,645.7 692.8,561.2 737.9,592.4 
	738.9,605.8 748,606.3 747,590 661.1,523.7 "/>
<path class="st3" d="M543.3,432.2c8.4-10.4,15.4-21.9,20.9-34.1c6.1-13.5,12.8-29.1,13.3-33.8c1-8.6,25.4-25.9,52.3-26.9
	c17.5-0.6,44.8-14.3,61.7-23.8c15.9-9,33.6-14.5,51.8-16c19.8-1.5,38.4,2.4,29,25.3L646.7,475.3c0,0-107.2,18.9-113.8-11.5
	c-0.4-1.5-0.9-3-1.5-4.5C530.1,456.4,529.8,448.9,543.3,432.2z"/>
<path class="st4" d="M552.8,435.2c8.4-10.5,15.5-22.1,21.1-34.4c5.7-12.6,11.8-26.8,12.2-31.1c0.9-8.3,24.3-24.8,50.1-25.7
	c16.8-0.6,42.9-13.7,59.1-22.7c15.2-8.6,32.1-13.8,49.6-15.2c18.9-1.4,36.7,2.3,27.8,24.2l-99.7,146c0,0-123,17.5-129.5-11.4
	c-0.4-1.5-0.9-3-1.5-4.5C540.7,457.5,540.5,450.5,552.8,435.2z"/>
<path class="st5" d="M667.9,484.7c-5.8,0-11.9,0-18.1-0.1l-0.3-11.8l18.2-3.4L667.9,484.7z"/>
<g class="st6">
	<polygon points="737.9,589.5 692.8,558.3 698,564.8 737.9,592.4 738.9,605.8 748,606.3 747.8,603.4 738.9,602.9 	"/>
	<polygon points="573.8,584.2 573.8,587.1 627.6,556.8 631.8,551.6 	"/>
	<polygon points="561.8,651.9 561.8,654.8 573.3,654.8 573.1,651.9 	"/>
	<polygon points="573.8,596.2 564.5,595.8 564.2,598.6 573.8,599.1 	"/>
	<polygon points="750.9,659.1 749,642.8 663.5,545.8 653.4,544.9 572.3,637 572.5,639.7 653.4,547.7 663.5,548.7 749,645.7 
		750.9,662 762.4,662.5 762.1,659.6 	"/>
</g>
<path class="st5" d="M657.8,390.1c0,0,22.5,16.4,12.6,16.6S657.8,390.1,657.8,390.1z"/>
<path class="st7" d="M563.4,480.1c0,0,37.2-2.9,51.1-29.8c0,0,28.3-56.2,51.4-62.4s65.8-20.2,83.5-41.8s25.2-38.2,25.2-38.2
	s4.6,17.5-9.9,38.1s-19.7,52.4-29.8,86s-13.9,47-32.2,49c-13.8,1.5-86.5,0.7-121.2,0C570.3,480.8,563.4,480.1,563.4,480.1z"/>
<path class="st3" d="M572.8,480.1c0,0,35.6-2.8,48.9-28.8c0,0,27.1-54.4,49.1-60.4s62.9-19.5,79.8-40.4s24.1-37,24.1-37
	s4.3,17-9.4,37s-18.8,50.7-28.5,83.2s-13.3,45.5-30.7,47.4c-13.1,1.4-82.6,0.7-115.9,0C579.4,480.8,572.8,480.1,572.8,480.1z"/>
<path class="st5" d="M544,466.1c0,0,19.4,7.4,30.5,3.4s38.4-16.1,38.4-16.1S566.8,456.3,544,466.1z"/>
<path class="st8" d="M674,815.4c0,0-55.9-3-69.5-11s-32.9-8-33-8L349,747.9l-92.5-22l-16.5-2.2l54.5-62.4l1.7-0.7l80.3-34.8
	c0,0,36,2,43.1,25.5c0.5,1.7,0.8,3.3,1,5.1c0.7,7.3-1.3,14.6-5.7,20.5c-2.8,3.9-6.3,9.4-7.4,14.2c-0.6,2.7-0.5,5.3,1,7.2
	c3,3,6.3,5.6,9.9,7.9c19.6,13,69.1,34.4,155.6,1.6c0,0,37-36.5,65-21S674,815.4,674,815.4z"/>
<path class="st5" d="M407.5,691.2c-0.6,2.7-0.5,5.3,1,7.2c3,3,6.3,5.6,9.9,7.9L250,718.9l46.2-58.3l80.3-34.8c0,0,36,2,43.1,25.5
	c0.5,1.7,0.8,3.3,1,5.1c0.7,7.3-1.3,14.6-5.7,20.5C412.1,680.9,408.6,686.4,407.5,691.2z"/>
<polygon class="st9" points="243,461.9 381,464.9 381,630.1 250,718.9 218.5,689.9 225,593.9 218.5,504.4 "/>
<path class="st10" d="M164.5,434.9l161.1-49.6c2.9-0.9,5.9-1.2,9-1l384.9,28.1c32.9,2.3,64.6,13.4,91.7,32.3
	c24.9,17.6,49.6,44.5,61,85.4c8.3,30.1,7.7,62-1.7,91.8l-34,110c0,0,25.5-239-229-251L164.5,434.9z"/>
<path class="st11" d="M250,458.4v265.3c0,0-44.1-6.2-52-14.8c-6.4-7.1-43.8-27-59.9-47.5c-3.6-4.5-6.1-9-7.1-13.5
	c-5.4-24.7-27.5-83-27.5-83l6-57l25-37l48.5-22h37.5L250,458.4z"/>
<path class="st10" d="M180,461.9c0,0-71.8,45-56.1,117.4c1.3,5.9,2.4,11.8,3.1,17.8c2.9,23.4,20.1,90.7,122.9,121.8v7l-43.6-12.2
	l-29.6-16.3l-22.6-20.3l-27.6-33.7l-12.8-27.5l-4.7-36.2l-2.7-41.3l6.6-35.5l15.6-23.1l19-14.8L180,461.9z"/>
<path class="st5" d="M250,458.4v42.2c-31.3,3.4-128.2,23-111,135l-1,25.7c-3.5-4.5-6.1-9-7.1-13.5c-5.4-24.7-27.5-83-27.5-83l6-57
	l25-37l48.5-22h37.5L250,458.4z"/>
<path class="st12" d="M414.9,677c-2.8,3.9-6.3,9.4-7.4,14.2c-4.4-5-5.3-10.8,1-15.3c7.9-5.7,10.5-15.7,11.1-24.5
	c0.5,1.7,0.8,3.3,1,5.1C421.4,663.8,419.3,671.1,414.9,677z"/>
<path class="st11" d="M819,703.9l-19,64.5l-43,42l-54,11l-84-15V507.9c0,0,14.5-9.5,16-9.5s42,6.5,42,6.5l91.7,65.8l3.8,2.7l41,61
	L819,703.9z"/>
<polygon class="st9" points="619,495.4 619,806.4 627.1,807.9 627.1,495.4 "/>
<path class="st5" d="M770.5,591.4c-60-49.3-126.7-56.5-151.5-57.5v-26c0,0,14.5-9.5,16-9.5s42,6.5,42,6.5l91.7,65.8L770.5,591.4z"/>
<path class="st8" d="M606.3,475.4l-375.8-41l-42.2-2.2c-26.7-1.5-52.6,9.3-70.2,29.4c-22,25.3-38.6,69.9-14.3,146.6
	c0,0,25.3,99.3,148,120.7l356.4,80.8c7.9,1.8,15.7,4,23.4,6.5c32.4,10.6,142,38.2,193.7-55.5c17.7-32.1,23-69.5,16.2-105.6
	C828.9,589.2,782,477.3,606.3,475.4z M790.4,756.3c-48.2,78.5-147.5,55.2-177.4,45.9c-7.3-2.3-14.7-4.2-22.2-5.8L261.6,726
	c-113.4-18.6-136.9-105.4-136.9-105.4c-19.1-57-10.8-93.8,4.7-117.1c16.2-24.4,44.4-38,73.7-36.5l38.9,2L578.2,514
	c6.8,0.9,13.7,1.5,20.5,1.7c149.5,5.1,196,87.3,207.8,143.9C813.4,692.7,808.2,727.5,790.4,756.3z"/>
<linearGradient id="SVGID_1_" gradientUnits="userSpaceOnUse" x1="-173.5939" y1="143.3023" x2="-173.5939" y2="682.5398" gradientTransform="matrix(-1 0 0 -1 76.41 791.1042)">
	<stop  offset="0" style="stop-color:#808080;stop-opacity:0.25"/>
	<stop  offset="0.54" style="stop-color:#808080;stop-opacity:0.12"/>
	<stop  offset="1" style="stop-color:#808080;stop-opacity:0.1"/>
</linearGradient>
<path class="st13" d="M4.2,642.6c12.3,8.2,31,4.3,31,4.3s28.2-13.3,36.5-13.3s28.6-8.3,28.6-8.3l-0.7-5.6L97.6,603
	c12.8,10,27.1,6.5,34.1,5.8c7.5-0.8,47.8-24.7,51.7-26.3c1-0.4,2.3-1.8,3.5-3.6l0,0c2.6-4,4.9-8.1,6.8-12.5l0,0
	c2.5-2.2,4.4-4,4.2-4.4s1-3.3,2.5-6.6c5.7-1,10.6-3.1,12.2-4.4c2.6-2.1,4.1-5.3,4-8.6c0,0,39.3-39.7,34.1-56.1s12.7-16.9,12.7-16.9
	s27.4-11.8,31.2-18.8c2.4-4.4,22.9-13.9,38.4-20.6l1.9-0.8c6,13.1,36.5,3,42.5-2.5c6.4-5.9,25-8.6,25-8.6s0.8-77,6.8-86.8
	c2.8-4.6,3.5-19.9,3.4-34.5c0-0.5,0-1,0-1.6c8.3-1.6,28.2-5.4,37.4-6.3c5.8-0.6,11.9-4.2,16.6-7.8l0.5,0.7c1.6,0.7,3.3,0.9,5.1,0.8
	c1.5,0.2,3.1-0.1,4.5-0.8c3.6-2,16.7-5.9,21.4-7.9s-0.8-16.1-4.4-18.9s-6-6.3-4-7.9s-4.8-5.5-8.7-6.3s-15.9-6.3-15.9-6.3
	s-4.4-9-11.5-9s-16.7-7.1-16.7-7.1c-0.4-3.1-7.9-3.5-7.9-3.5s-28.6-22-33.4-19.2s-17.9-4.3-17.9-4.3s-16.1,1.8-19.9-1.2l0,0
	c0-1-0.4-1.9-1-2.7c-0.9-2.7-5-6.3-9-9.3c0.3-1.9,0.5-3.8,0.5-5.7c0-0.8,0-1.6-0.1-2.4c0-0.1,0-0.3,0-0.4l0.6-5.5
	c0-1.8,0.5-3.6,1.4-5.2c0.7-1,1.7-1.9,2.4-2.8c0.2-0.2,0.3-0.5,0.5-0.7l0.1-0.2c0.1-0.2,0.2-0.4,0.3-0.6l0.1-0.2
	c0.2-0.5,0.4-1.1,0.5-1.7v-0.1c0-0.3,0.1-0.5,0.1-0.8c0,0,0-0.1,0-0.1c0.2-2.3-0.1-4.6-0.9-6.7c-1.2-3.7-3-7.3-3.3-11.2
	c-0.1-1.9,0.2-3.9-0.2-5.8c-1-4.3-5.4-7-9.6-8.8c-5.9-2.5-8.8-5.1-13.5-8.8c-4-3.1-10.6-1.5-15.7-1.2c-11.5,0.7-22.9,4.2-33.7,7.8
	c-4.2,1.4-8.5,3-11.8,5.9c-2.2,1.9-3.7,4.4-4.3,7.3l0,0c-0.1,0.7-0.2,1.3-0.1,2c0,0.1,0,0.1,0,0.2c0,0.3,0,0.5,0.1,0.8
	c0,0.1,0,0.2,0,0.3c0,0.3,0.1,0.6,0.2,0.9l0,0c0.5,1.4,1.3,2.8,1.8,4.2c0.1,0.3,0.2,0.7,0.3,1c0,0,0,0.1,0,0.1
	c0.1,0.3,0.1,0.6,0.2,1l0,0c0.4,3.6-0.9,7.3-1.5,10.9c-0.1,0.5-0.1,1-0.2,1.6l0,0l0,0c-0.2,2.1,0,4.2,0.5,6.3c0,0,0,0,0,0.1
	c0.1,0.3,0.1,0.5,0.2,0.7c0,0.1,0.1,0.2,0.1,0.3c0.1,0.2,0.2,0.4,0.2,0.6l0.2,0.4c0.1,0.2,0.2,0.4,0.3,0.5s0.1,0.3,0.2,0.4
	c0.1,0.2,0.2,0.3,0.3,0.5c0.1,0.2,0.2,0.3,0.3,0.5s0.2,0.3,0.3,0.4s0.2,0.3,0.4,0.5l0.3,0.4l0.4,0.4l0.3,0.3l0.5,0.4
	c0.1,0.1,0.2,0.2,0.3,0.3s0.4,0.3,0.6,0.4l0.3,0.2c0.3,0.2,0.7,0.4,1,0.5c2.3,1,5.2,1.4,6.5,3.4c0.3,0.5,0.6,1,0.7,1.6
	c0,0.1,0,0.3,0,0.4v0.4c0,1.2,0.1,2.3,0.2,3.4c0,0.6,0,1.2,0.1,1.9c0.1,0.5,0.2,0.9,0.4,1.4c1.6,7.9,5.8,15,12,20.2
	c0.1,0.6,0.3,1.3,0.4,2.1c-3.5,2.6-7.4,4.6-11.5,6c-9.5,2.8-23,15.7-23,15.7s-6.7,48.3-8.3,54.2s-2.8,28.7-2.8,28.7s-1.6,9.4-4,14.1
	c-1.7,3.3-1.4,17.6,3.3,26.3c-0.8,1.7-1.7,3.3-2.9,4.8c-9.5,11-38.1,10.6-47.6,10.6c-8.8,0-11.5,5.3-11.9,6.2
	c-17.5,5-74,21.1-80.7,24c-7.9,3.5-12.3,37.8-12.3,37.8s-16.6,56.9-15.8,64.4s-5.6,28.2-5.6,28.2s0,23.5-2.7,25.1c0,0-0.1,0-0.1,0
	c-2.8,1.2-2.4,12.6-2.4,12.6s2.1,0.6,5.2,1.4c-0.9,5.8-4,13.8-6.4,19.5c-1.2-1.6-2.4-2.2-3.2-0.4c-2,5-31.8,40.3-39.3,40.3
	c-3.6,0-9.5,2.9-13.4,6.9C-0.4,632.6-2.2,638.2,4.2,642.6z M140.8,438c33.8,3.1,69.9-2.4,69.9-2.4s-2.8,9.9-5.2,13.8
	s-9.1,26.3-9.1,31c0,4.7-10.7,45.2-13.9,47.1c-1.3,0.8-2.5,2.9-3.5,5c-0.8,2-1.5,4-2.1,6c0,1,0.1,2,0.3,2.9
	c-2.4,2.2-4.9,4.5-7.1,6.5l0,0c0,0-14.2,7.9-19,12.2s-27,9.6-27,9.6c-5.5,2.4-10.8,5.1-16,8.2c-6.9,4.2-13.8,9.4-15.6,14.6
	c0.8-8.8,2.1-19.3,2.9-26.1l1.3,0c11.1-0.7,9.5-11.3,8.9-13.9c-0.1-0.4-0.1-0.6-0.1-0.6c7.9-8.6,25.8-73,23.4-80.1
	c-2.4-7.1,2-13.4,2.9-13.4s2.2-7.9,0.3-12.2C130,441.9,140.8,438,140.8,438z M413.7,264.8l-2.1,0.5v-0.5
	C411.6,264.8,412.3,264.8,413.7,264.8z M298.3,205.5c-0.3,0.4-0.6,0.8-1,1.1l-0.4,0.4c0-0.7,0-1.5,0-2.2
	C297.4,205.1,297.9,205.3,298.3,205.5z M258.6,281.7l0.1,2.2c0,0-0.2,1.4-0.6,3.7L258.6,281.7z M441,259.8l-6.9,1.2
	c1-0.4,2-0.8,2.9-1.2c0.7-0.3,1.4-0.5,2.2-0.6c0.9,0.1,1.7,0.3,2.6,0.5C441.5,259.7,441.2,259.7,441,259.8z"/>
<path class="st14" d="M206.7,543.2c0,0-8,16.5-7.6,17.7S182,576.1,182,576.1l-19.1-13.6l2-9.4c0,0,21.4-19.3,23-21.5
	S206.7,543.2,206.7,543.2z"/>
<path class="st15" d="M97.8,599.1c13.3,12.9,28.8,9,36.2,8.2c7.4-0.8,46.9-24.5,50.7-26.1c1-0.4,2.3-1.8,3.5-3.5l0,0
	c2.5-3.9,4.8-8.1,6.7-12.4c-0.3,0.1-13.2,3.8-16.5,0c0,0-5.5-6.7-6.6-6.7s-0.1-11.7-0.1-11.7s-13.9,7.8-18.6,12.1
	c-4.7,4.3-26.5,9.5-26.5,9.5c-5.4,2.3-10.6,5.1-15.7,8.1C100.6,582.9,90.2,591.8,97.8,599.1z"/>
<path class="st5" d="M97.8,599.1c13.3,12.9,28.8,9,36.2,8.2c7.4-0.8,46.9-24.5,50.7-26.1c1-0.4,2.3-1.8,3.5-3.5
	c-4.6-2.8-34.7,16.4-43.2,19.9c-8.4,3.5-29.8,1.5-41.9-3.5c-6-2.5,0.1-10.3,7.7-17.4C100.6,582.9,90.2,591.8,97.8,599.1z"/>
<path class="st14" d="M99.4,558.6c0,0-5.6,41.7-4.1,47.2S60.4,587,60.4,587s12.7-26.1,9-32.1S99.4,558.6,99.4,558.6z"/>
<path class="st16" d="M64.7,559.4c0,0,22.6,6.6,35.1,5.8c10.9-0.7,9.3-11.2,8.7-13.8c-0.1-0.4-0.1-0.6-0.1-0.6
	c7.8-8.6,25.3-72.5,23-79.5c-2.3-7,1.9-13.2,2.9-13.2s2.2-7.8,0.2-12.1c-1.9-4.3,8.6-8.2,8.6-8.2c33.1,3.1,68.6-2.4,68.6-2.4
	s-2.7,9.8-5.1,13.7s-9,26.1-9,30.8s-10.5,44.8-13.6,46.8c-1.3,0.8-2.5,2.9-3.4,5c-0.8,2-1.5,4-2.1,6c1.2,26.1,30.8,16,35.1,12.5
	c0.6-0.5,1.2-1.1,1.7-1.7c1.5-2,2.3-4.4,2.2-6.9c0,0,38.6-39.4,33.5-55.7s12.5-16.8,12.5-16.8s26.9-11.7,30.6-18.7
	c2.3-4.3,22.5-13.8,37.6-20.4c9.5-4.2,17.1-7.2,17.1-7.2l-6.3-22.7l-5-17.9l-9.4-3.5l-30-11.3l-53.8-7.6l-4.9,0.6l-52.3,6.8
	c0,0-76.3,21.8-84.1,25.3S90.8,430,90.8,430s-16.4,56.5-15.6,63.9s-5.5,28-5.5,28s0,23.3-2.6,24.9c0,0-0.1,0-0.1,0
	C64.3,548.1,64.7,559.4,64.7,559.4z"/>
<path class="st5" d="M143,437.8c33.1,3.1,68.6-2.4,68.6-2.4c2.3-7.4,35.1-27.6,35.1-27.6C219.8,401.1,143,437.8,143,437.8z"/>
<path class="st17" d="M178.5,537.5c1.2,26.1,30.8,16,35.1,12.5c0.6-0.5,1.2-1.1,1.7-1.7c-10.4,3.8-28.7,6.8-34.7-16.7
	C179.7,533.5,179,535.5,178.5,537.5z"/>
<path class="st17" d="M64.7,559.4c0,0,22.6,6.6,35.1,5.8c10.9-0.7,9.3-11.2,8.7-13.8c-11.4-0.4-31.1-1.4-41.4-4.5c0,0-0.1,0-0.1,0
	C64.3,548.1,64.7,559.4,64.7,559.4z"/>
<path class="st5" d="M178.5,537.5c1.2,26.1,30.8,16,35.1,12.5c0.6-0.5,1.2-1.1,1.7-1.7c-10.4,3.8-28.7,6.8-34.7-16.7
	C179.7,533.5,179,535.5,178.5,537.5z"/>
<path class="st5" d="M64.7,559.4c0,0,22.6,6.6,35.1,5.8c10.9-0.7,9.3-11.2,8.7-13.8c-11.4-0.4-31.1-1.4-41.4-4.5c0,0-0.1,0-0.1,0
	C64.3,548.1,64.7,559.4,64.7,559.4z"/>
<path class="st15" d="M9,640.8c12.1,8.2,30.4,4.3,30.4,4.3s27.7-13.2,35.9-13.2s28-8.2,28-8.2l-0.7-5.5l-3.2-26.4
	c0,0-30.4-0.8-31.6-3.5c0,0-5.4-13.4-7.4-8.5s-31.2,40-38.6,40c-3.5,0-9.4,2.9-13.2,6.9C4.4,631,2.6,636.5,9,640.8z"/>
<path class="st5" d="M113.8,410.5c0,0,25.3,16,18.3,19.5C125.1,433.5,113.8,410.5,113.8,410.5z"/>
<path class="st5" d="M103.2,441.3c0,0,21.8,20.7,13.6,21.3S103.2,441.3,103.2,441.3z"/>
<path class="st5" d="M79.9,507.1c0,0,11.1,20.8,6.9,24.4S79.9,507.1,79.9,507.1z"/>
<path class="st5" d="M201.9,528.2c-3.9,3.9,37-12.9,27.7-13.6S201.9,528.2,201.9,528.2z"/>
<path class="st14" d="M283.7,235.9l1.3-0.2c4.8-0.7,22.4-3.5,38.2-6.9c3.8-0.8,7.6-1.7,11-2.6c12.1-3.2,20.2-6.6,15-9.4
	c-6.8-3.7-10.4-10.4-12.3-16.3c-0.2-0.6-0.4-1.1-0.5-1.7c-0.8-2.9-1.4-6-1.6-9c0,0-44-15.6-35.5,0c4.2,7.6,1.4,13.9-2.6,18.3
	c-2.7,2.9-5.9,5.3-9.5,7.1L283.7,235.9z"/>
<path class="st5" d="M330.8,223.9c0,0-15.8,11.3-31.8,2s-37.1,82.6-37.1,82.6L240,362.2c0,0-14.1,11.7,3.5,16.8s56.6-5.1,66.5,9.7
	s28.7,17.1,30.6,17.1s9.3-55.7,9.3-55.7l1.9-80.7L330.8,223.9z"/>
<path class="st18" d="M244.2,375.8c17.6,5.1,56.6-5.1,66.5,9.7c4.2,6,10,10.7,16.8,13.5c4.4,2,9.1,3.2,13.8,3.7c0.3,0,0.6-1,1-2.8
	c2.7-11.3,8.3-52.9,8.3-52.9l1.9-80.7l-18.5-40.1l-2.5-5.5c-2.5,1.7-5.2,3-8,3.9c-6.1,2.1-14.9,3.2-23.8-2
	c-4.7-2.7-9.9,3.2-14.8,13.1c-11.8,23.6-22.4,69.5-22.4,69.5l-21.8,53.8c-0.5,0.4-1,0.9-1.5,1.4
	C236.2,363.8,230.4,371.8,244.2,375.8z"/>
<path class="st5" d="M328.1,378.5c-0.9,6.8-1,13.7-0.5,20.5c0.6,9.7,1.9,19.4,3.7,29c0.1,0.6,0.3,1.2,0.5,1.8
	c9.5-4.2,17.1-7.2,17.1-7.2l-6.3-22.7c2.7-11.3,8.3-52.9,8.3-52.9l1.9-80.7l-18.5-40.1c12.1-3.2,20.2-6.6,15-9.4
	c-7.5-4.1-11.1-11.8-12.9-17.9c-3.2,4.4-6.9,8.4-11,11.9L325,211l-1.4,13.6l-0.4,4.2l-0.9,8.7c0,0,4.3,102.5,7.4,108.3
	s1.6,17.1-1.2,30.4C328.3,377,328.2,377.7,328.1,378.5z"/>
<path class="st19" d="M330,374.6c-2.7,13.3-0.4,35.1,2.7,51.8s36.2,5.9,42.5,0s24.5-8.6,24.5-8.6s0.8-76.4,6.6-86.1
	c2.8-4.6,3.4-19.7,3.4-34.3c0-13.1-0.7-25.8-0.9-30c-0.1-1-0.1-1.5-0.1-1.5s25.3-42.9,24.9-46s-7.8-3.5-7.8-3.5s-28-21.8-32.7-19.1
	s-17.5-4.3-17.5-4.3s-16.3,1.9-19.7-1.3c-0.4-0.4-0.6-0.9-0.6-1.4c0.4-5-16.6-15.6-17.1-16c14.3,12.9-8.8,32.7-11.5,34.9l-0.2,0.2
	l-2.7,26.5c0,0,4.3,102.5,7.4,108.3S332.8,361.4,330,374.6z"/>
<circle class="st20" cx="331.5" cy="263.3" r="2"/>
<path class="st5" d="M327.6,210.8l11.8,11.5l17.4-29c-0.4-0.4-0.6-0.9-0.6-1.4c0.4-5-16.6-15.6-17.1-16
	C353.3,188.8,330.2,208.7,327.6,210.8z"/>
<circle class="st5" cx="335.5" cy="325.7" r="2"/>
<circle class="st20" cx="335.5" cy="324.9" r="2"/>
<path class="st19" d="M326.8,209.3l11.8,11.5l17.4-29c-0.4-0.4-0.6-0.9-0.6-1.4c0.4-5-16.6-15.6-17.1-16
	C352.6,187.3,329.4,207.1,326.8,209.3z"/>
<path class="st21" d="M339.9,318.9l-23.7-0.5c-0.9,0-1.7-0.8-1.7-1.7l1.2-53.9c0-0.9,0.8-1.7,1.7-1.7l23.7,0.5
	c0.9,0,1.7,0.8,1.7,1.7l-1.2,53.9C341.6,318.2,340.9,319,339.9,318.9z"/>
<path class="st22" d="M340.1,320.2l-23.7-0.5c-0.9,0-1.7-0.8-1.7-1.7l1.2-53.9c0-0.9,0.8-1.7,1.7-1.7l23.7,0.5
	c0.9,0,1.7,0.8,1.7,1.7l-1.2,53.9C341.8,319.5,341,320.2,340.1,320.2z"/>
<circle class="st23" cx="329.6" cy="279.4" r="4.3"/>
<path class="st5" d="M182.8,371.1c9.7,4.3,73.6-7,83-9.7s23-23.8,16.4-39s2.3-30,2.3-30s14-30,17.1-35.9s9.6-22.9,10.5-25.7
	c0.1-0.6-0.1-1.3-0.5-1.8c-2.5-3.8-12.3-10.6-12.3-10.6c-2.8,1-3.1-6.9-3-12.7c0.1-3.2,0.3-5.8,0.3-5.8s-1.3,1.3-3.4,3.1
	c-0.8,0.6-1.6,1.4-2.6,2.1c-3.7,2.9-7.8,5.2-12.2,6.7c-9.4,2.8-22.6,15.5-22.6,15.5l3.9,59.8c0,0-9,56.3-18.3,67.2
	s-37.4,10.5-46.8,10.5S182.8,371.1,182.8,371.1z"/>
<path class="st19" d="M182,368.8c9.7,4.3,73.6-7,83-9.8s23-23.8,16.4-39s2.3-30,2.3-30s14-30,17.1-35.9s9.6-22.9,10.5-25.7
	c0.1-0.6-0.1-1.3-0.5-1.8c-2.6-3.8-12.3-10.6-12.3-10.6c-2.8,1-3.1-6.9-3-12.7c0.1-3.3,0.3-5.8,0.3-5.8s-1.3,1.3-3.4,3.1
	c-0.8,0.6-1.6,1.4-2.6,2.1c-3.7,2.9-7.8,5.2-12.3,6.7c-9.4,2.8-22.6,15.5-22.6,15.5l3.9,59.8c0,0-9,56.3-18.3,67.2
	s-37.4,10.5-46.8,10.5S182,368.8,182,368.8z"/>
<path class="st5" d="M288,199.1c0,0,0.4,2.1,1,5.2c2.1,10.7,7.1,34.1,10.7,33.2c2.6-0.6,7-5.2,10.4-9.2
	c-2.5-3.9-12.3-10.7-12.3-10.7c-2.8,1-3.1-6.9-3-12.7l-3.1-2.7L288,199.1z"/>
<path class="st19" d="M288.7,197.6c0,0,0.4,2.1,1,5.2c2.1,10.7,7.1,34.1,10.7,33.2c2.6-0.6,7-5.2,10.4-9.2
	c-2.6-3.9-12.3-10.6-12.3-10.6c-2.8,1-3.1-6.9-3-12.7l-3.1-2.7L288.7,197.6z"/>
<path class="st14" d="M263.8,312.3c0,0,19.5-3.9,24.9-12.5s42.6-16,38-7s-38,38.3-38,38.3l-14.5,20.8l-19.4-4.9l-8.2-15.9
	L263.8,312.3z"/>
<path class="st5" d="M309.9,334.5c0,0-18.9,7-21.7,16.4S309.9,334.5,309.9,334.5z"/>
<path class="st5" d="M321.5,345.4c0,0,1.7,9.7-21.9,9L321.5,345.4z"/>
<path class="st5" d="M423.6,220.7l8.6-0.8c0,0,9.3,7,16.4,7s11.3,9,11.3,9s11.7,5.5,15.6,6.2s10.5,4.7,8.6,6.2s0.4,5.1,3.9,7.8
	s9,16.8,4.3,18.7s-17.5,5.8-21,7.8s-7.8,0-7.8,0s-20.6-26.9-31.2-21.8s-25,5-25,5l-11.3-23.8L423.6,220.7z"/>
<path class="st19" d="M244.2,348.9c1.8,2.7,4.2,4.7,7.3,5c7.6,0.9,15.4,0.2,22.7-2.1c0,0-39.3-12.5-1.5-42.8h-10.1l-3.4-1.3l1.5-8.1
	L263,227l-8.2-2c0,0-6.6,47.9-8.2,53.8s-2.8,28.5-2.8,28.5s-1.6,9.4-3.9,14C238.2,324.8,238.7,340.6,244.2,348.9z"/>
<path class="st5" d="M245.8,348.9c1.8,2.7,4.2,4.7,7.3,5c7.6,0.9,15.4,0.2,22.7-2.1c0,0-39.3-12.5-1.5-42.8h-10.1l-3.4-1.3
	C255.2,317.7,246.5,335.1,245.8,348.9z"/>
<path class="st24" d="M244.2,348.9c1.8,2.7,4.2,4.7,7.3,5c7.6,0.9,15.4,0.2,22.7-2.1c0,0-39.3-12.5-1.5-42.8h-10.1l-3.4-1.3
	C253.7,317.7,245,335.1,244.2,348.9z"/>
<path class="st25" d="M244.2,348.9c1.8,2.7,4.2,4.7,7.3,5c7.6,0.9,15.4,0.2,22.7-2.1c0,0-39.3-12.5-1.5-42.8h-10.1l-3.4-1.3
	C253.7,317.7,245,335.1,244.2,348.9z"/>
<path class="st5" d="M296.7,208.2c13.6,6.2,29.7,3.1,40.1-7.6c-0.2-0.6-0.4-1.1-0.5-1.7c-0.8-2.9-1.4-6-1.6-9c0,0-44-15.6-35.5,0
	C303.5,197.6,300.6,203.8,296.7,208.2z"/>
<path class="st14" d="M275.9,174.4v0.4c0,1.1,0.1,2.3,0.2,3.4s0.3,2.1,0.5,3.2c3.8,19.2,22.5,31.7,41.7,27.8
	c12.4-2.5,22.5-11.3,26.6-23.2c0.2-0.7,0.5-1.4,0.6-2.1c0.9-3.1,1.3-6.3,1.3-9.4c0-0.8,0-1.6-0.1-2.4c-1.4-19.5-18.4-34.2-37.9-32.8
	C290.3,140.4,275.9,155.8,275.9,174.4L275.9,174.4z"/>
<path class="st5" d="M275.9,174.7c0.2,1.1,0.3,2.3,0.2,3.4c0,0.6,0,1.2,0.1,1.9c0.1,0.5,0.2,0.9,0.4,1.3c1.4,3.4,6.1,5.5,9.2,3.4
	c1.2-1,2.1-2.2,2.8-3.6c3.3-6.1,7.8-13.1,15-13.2c3.1-0.1,5.9,1.2,8.9,2s6.5,0.8,8.7-1.2c1.7-1.6,2.5-4.2,4.8-4.7s4.4,1.5,5.4,3.6
	s1.9,4.4,4,5.5c0.9,0.5,2,0.6,3,1.1c4.2,2.3,2.3,10.4,6.7,11.8c0.1,0,0.3,0.1,0.4,0.1c0.1-0.7,0.1-1.5,0.2-2.2
	c0.4-4,0.8-7.9,1.2-11.9c-1.4-19.5-18.4-34.2-37.9-32.8c-18.5,1.3-32.9,16.7-32.9,35.3L275.9,174.7z"/>
<path class="st26" d="M338.9,121.4c4.2,1.8,8.5,4.5,9.4,8.7c0.4,1.9,0.1,3.8,0.2,5.7c0.2,3.8,2,7.4,3.2,11.1s1.6,8-0.8,11.1
	c-0.7,1-1.7,1.8-2.4,2.8c-0.9,1.6-1.3,3.4-1.4,5.2l-1.9,19.2c-4.9-0.9-2.7-9.5-7.1-11.9c-0.9-0.5-2-0.6-3-1.1c-2.1-1-2.9-3.4-4-5.5
	s-3.1-4.1-5.4-3.6s-3.1,3.2-4.8,4.7c-2.2,2-5.7,1.9-8.7,1.2s-5.8-2-8.9-2c-7.2,0.1-11.7,7.1-15,13.2c-0.6,1.4-1.6,2.7-2.8,3.6
	c-3.5,2.4-9-0.6-9.6-4.7c-0.3-2.3,0.4-4.8-0.9-6.8s-4.2-2.4-6.4-3.4c-5.7-2.6-7.5-9.7-6.5-15.7c0.7-4.3,2.4-8.7,1-12.9
	c-0.5-1.4-1.3-2.7-1.8-4.2c-1.3-4,0.8-8.4,4-11.3s7.4-4.4,11.6-5.8c10.6-3.6,21.8-7,33.1-7.7c5-0.3,11.4-1.9,15.4,1.2
	C330.2,116.3,333.1,119,338.9,121.4z"/>
<circle class="st5" cx="329.6" cy="232.5" r="2"/>
<circle class="st20" cx="329.6" cy="231.8" r="2"/>
<circle class="st5" cx="342.1" cy="354.9" r="2"/>
<circle class="st20" cx="342.1" cy="354.1" r="2"/>
<circle class="st5" cx="335.5" cy="387.2" r="2"/>
<circle class="st20" cx="335.5" cy="386.5" r="2"/>
<path class="st5" d="M268.5,263.3c0,0-4.3,29.1,0,34.2S268.5,263.3,268.5,263.3z"/>
<path class="st5" d="M395.9,317.4c0,0,8.2,17.6,0,34.5s-13.3,23.8-10.5,34.6S395.9,317.4,395.9,317.4z"/>
<path class="st5" d="M9,640.8c12.1,8.2,30.4,4.3,30.4,4.3s27.7-13.2,35.9-13.2s28-8.2,28-8.2l-0.7-5.5c-8.1,1.5-26.4,5.3-28.6,7.1
	c-2.7,2.3-36.2,13.6-36.2,13.6S14.9,636,8.6,626.6C4.4,631,2.6,636.5,9,640.8z"/>
<g class="st6">
	<path d="M348.5,132.8c0-0.4,0-0.8,0-1.3c0,0.5,0,1,0,1.5C348.5,132.9,348.5,132.8,348.5,132.8z"/>
	<path d="M268.8,165.9c2.2,1,5,1.4,6.4,3.4s0.6,4.5,0.9,6.8c0.6,4.1,6.1,7.2,9.6,4.7c1.2-1,2.1-2.2,2.8-3.6
		c3.3-6.1,7.8-13.1,15-13.2c3.1-0.1,5.9,1.2,8.9,2s6.5,0.8,8.7-1.2c1.7-1.5,2.5-4.2,4.8-4.7s4.4,1.5,5.4,3.6s1.9,4.4,4,5.5
		c0.9,0.5,2,0.6,3,1.1c4.4,2.4,2.2,11,7.1,11.9c0.7-6.4,1.3-12.8,1.9-19.2c0-1.8,0.5-3.6,1.4-5.2c0.7-1,1.6-1.8,2.4-2.8
		c0.9-1.2,1.4-2.6,1.6-4.1c0.4,2.5-0.2,5.1-1.6,7.2c-0.7,1-1.7,1.8-2.4,2.8c-0.9,1.6-1.3,3.4-1.4,5.2c-0.7,6.4-1.3,12.8-1.9,19.2
		c-4.9-0.9-2.7-9.5-7.1-11.9c-0.9-0.5-2-0.6-3-1.1c-2.1-1-2.9-3.4-4-5.5s-3.1-4.1-5.4-3.6s-3.1,3.2-4.8,4.7c-2.2,2-5.7,1.9-8.7,1.2
		s-5.8-2-8.9-2c-7.2,0.1-11.7,7.1-15,13.2c-0.6,1.4-1.6,2.7-2.8,3.6c-3.5,2.4-9-0.6-9.6-4.7c-0.3-2.3,0.4-4.8-0.9-6.8
		s-4.2-2.4-6.4-3.4c-5.2-2.4-7.1-8.6-6.7-14.1C262.5,159.5,264.6,163.9,268.8,165.9z"/>
	<path d="M261.5,133.2c0.5,1.4,1.3,2.7,1.8,4.2c0.5,1.7,0.7,3.4,0.4,5.1c-0.1-0.7-0.2-1.4-0.4-2c-0.5-1.4-1.3-2.7-1.8-4.2
		c-0.4-1.3-0.5-2.7-0.2-4.1C261.4,132.6,261.4,132.9,261.5,133.2z"/>
</g>
<path class="st27" d="M481.4,454.1l-80.3-10c-1.7-0.2-2.9-1.7-2.7-3.4c0.1-0.7,0.4-1.3,0.8-1.8l33.7-35c0.7-0.7,1.6-1,2.6-0.9
	l61.4,6.9c1.7,0.2,2.9,1.7,2.7,3.4c0,0.3-0.1,0.5-0.2,0.8l-14.8,38.2C484.1,453.5,482.8,454.3,481.4,454.1z"/>
<path class="st5" d="M481.4,454.1l-80.3-10c-1.7-0.2-2.9-1.7-2.7-3.4c0.1-0.7,0.4-1.3,0.8-1.8l33.7-35c0.7-0.7,1.6-1,2.6-0.9
	l61.4,6.9c1.7,0.2,2.9,1.7,2.7,3.4c0,0.3-0.1,0.5-0.2,0.8l-14.8,38.2C484.1,453.5,482.8,454.3,481.4,454.1z"/>
<path class="st27" d="M480.5,453.2l-80.3-10.1c-1.7-0.2-2.9-1.8-2.7-3.4c0.1-0.7,0.4-1.3,0.8-1.7l33.7-35c0.7-0.7,1.6-1,2.6-0.9
	l61.4,6.9c1.7,0.2,2.9,1.7,2.7,3.4c0,0.3-0.1,0.5-0.2,0.8l-14.8,38.2C483.2,452.6,481.9,453.4,480.5,453.2z"/>
<path class="st21" d="M432.6,416.7l24.1,1.9l34.4-2.2h-0.6l-31.9-3.1c-7.3-2.7-2.2-18.5-2.2-18.5l-24.4,1.2l-2,0.1
	C421.4,416.4,432.6,416.7,432.6,416.7z"/>
<path class="st5" d="M432.6,416.7l24.1,1.9l34.4-2.2h-0.6l-34.8,1.2l-23.3-2.5c-6.6-1.7-2.8-13.2-0.4-19l-2,0.1
	C421.4,416.4,432.6,416.7,432.6,416.7z"/>
<path class="st28" d="M390.4,273.2l7.4,105.9l1,13.9c0.2,3.2,2.9,5.6,6.1,5.6h2.2l111.1-0.7c1.7,0,3.1-1.4,3.1-3.2
	c0-0.1,0-0.2,0-0.3l-1-13.9l-7.8-93.1c-0.2-2.5-1.9-4.6-4.3-5.4l-105.9-15.9c-3.6-1.3-7.3-0.8-9.6,1.1
	C391,268.8,390.1,271,390.4,273.2z"/>
<path class="st22" d="M397.7,379.1l1,13.9c0.2,3.2,2.9,5.6,6.1,5.6h2.2l111.1-0.7c1.7,0,3.1-1.4,3.1-3.2c0-0.1,0-0.2,0-0.3l-1-13.9
	L397.7,379.1z"/>
<ellipse class="st23" cx="472.2" cy="390.6" rx="1.5" ry="3"/>
<path class="st21" d="M467.9,430.2c0,0-30.4-11.5-38.6-3.1c0,0-1.3,2.5,4.2,3.1l22.3,1.8C455.7,432,464.9,432.9,467.9,430.2z"/>
<path class="st22" d="M467.1,427.2c-6-2.4-23.9-8.8-35.4-1.8c0,0,12.7-1.4,19.7,2.6s16.5,2.1,16.5,2.1l0.1-0.3
	c0.5-0.9,0.2-2.1-0.7-2.6C467.2,427.3,467.2,427.3,467.1,427.2z"/>
<path class="st22" d="M390.4,273.2l8.3,119.8c0.2,3.2,2.9,5.6,6.1,5.6h2.2c-1.5-1.5-2.8-3.1-3.9-5c0,0-8.2-120.3-8.8-123.3
	c-0.3-1.1-0.8-2.1-1.6-2.9C391,268.8,390.1,271,390.4,273.2z"/>
<path class="st5" d="M390.4,273.2l8.3,119.8c0.2,3.2,2.9,5.6,6.1,5.6h2.2c-1.5-1.5-2.8-3.1-3.9-5c0,0-8.2-120.3-8.8-123.3
	c-0.3-1.1-0.8-2.1-1.6-2.9C391,268.8,390.1,271,390.4,273.2z"/>
<path class="st5" d="M376,306.4c9-2,30-8.2,30-8.2l3.8-0.8c0-13.1-0.7-25.8-0.9-30h-0.1c0,0-17.9,5.9-22.2,9s-17.5,2.3-17.5,2.3
	s-20.6,1.1-37.8,20.2S367.1,308.4,376,306.4z"/>
<path class="st14" d="M463.6,271.7c2.6,1.2,3.8,4.3,2.6,6.9c-0.3,0.7-0.8,1.3-1.4,1.8c-4.8,3.9-11.7,8.6-18.3,9.3
	c-11,1.1-37.6,6.4-40.2,7c-0.1,0-0.3,0.1-0.4,0.1c-2.2,0.6-21.4,6.3-29.8,8.1c-9,2-62,11.7-44.8-7.4c15.8-17.6,34.5-20,37.4-20.2
	c0.2,0,0.5,0,0.7,0c2,0.1,13.3,0.5,17.2-2.4c2-1.3,4.2-2.4,6.4-3.2c8.5-3.5,17.3-6.1,26.4-7.6l18.3-3.2c1-0.2,2.1,0,3.1,0.4
	L463.6,271.7z"/>
<path class="st19" d="M425.1,220.7l8.6-0.8c0,0,9.4,7,16.4,7s11.3,9,11.3,9s11.7,5.5,15.6,6.2s10.5,4.7,8.6,6.2s0.4,5.1,3.9,7.8
	s9,16.8,4.3,18.7s-17.5,5.8-21,7.8s-7.8,0-7.8,0s-20.7-26.9-31.2-21.8s-24.9,5.1-24.9,5.1l-11.3-23.8L425.1,220.7z"/>
</svg>
